<?xml version="1.0" encoding="UTF-8"?>
<svg id="_レイヤー_2" data-name="レイヤー 2" xmlns="http://www.w3.org/2000/svg" viewBox="0 0 70 70">
  <defs>
    <style>
      .cls-1 {
        fill: #fff;
        stroke-width: 0px;
      }
    </style>
  </defs>
  <g id="_レイヤー_2-2" data-name="レイヤー 2">
    <path class="cls-1" d="m35,0C15.67,0,0,15.67,0,35s15.67,35,35,35,35-15.67,35-35S54.33,0,35,0Zm0,62.22c-15.03,0-27.22-12.19-27.22-27.22S19.97,7.78,35,7.78v54.44Zm7.78-46.67h11.27c2.28,2.23,4.17,4.86,5.55,7.78h-16.82v-7.78Zm11.27,38.89h-11.27v-7.78h16.82c-1.39,2.92-3.28,5.54-5.55,7.78Zm-11.27-15.56v-7.78h19.16c.18,1.27.28,2.57.28,3.89s-.1,2.62-.28,3.89h-19.16Z"/>
  </g>
</svg>