<?xml version="1.0" encoding="UTF-8"?>
<svg id="_レイヤー_2" data-name="レイヤー 2" xmlns="http://www.w3.org/2000/svg" viewBox="0 0 351 81">
  <g id="_レイヤー_1-2" data-name="レイヤー 1">
    <path d="M0,0v81h351V0H0ZM48,71.31h-8.07V26.85h-.17l-7.98,44.46h-5.92l-8.15-44.46h-.17v44.46h-8.07V9.69h12.36l6.87,38.37h.17l7.21-38.37h11.93v61.63ZM65.34,71.31h-9.44V9.69h9.44v61.63ZM97.95,18.36h-9.18v52.96h-9.44V18.36h-9.27v-8.67h27.9v8.67ZM114.26,72c-9.87,0-13.48-5.75-14.08-16.74l8.67-.51c.52,6.44,1.8,9.27,5.58,9.27,3.26,0,5.15-2.49,5.15-6.61,0-13.48-18.8-16.22-18.8-33.99,0-8.75,4.64-14.42,13.3-14.42,10.13,0,13.39,6.87,13.99,16.74l-8.41.52c-.26-5.41-1.72-9.1-5.41-9.1-3.18,0-4.46,2.06-4.46,5.41,0,13.13,19.05,15.79,19.05,34.07,0,9.53-5.32,15.36-14.59,15.36ZM163.01,56.04c0,10.9-4.64,15.79-14.33,15.79s-14.25-4.89-14.25-15.79V9.69h9.36v47.21c0,5.15,1.8,6.95,4.98,6.95s4.98-1.8,4.98-6.95V9.69h9.27v46.35ZM191.85,71.31l-7.98-29.18-4.03,8.93v20.26h-9.1V9.69h9.1v25.84h.17l10.81-25.84h9.44l-9.96,22.14,11.07,39.48h-9.53ZM214,71.31h-9.44V9.69h9.44v61.63ZM246.44,72c-9.87,0-13.48-5.75-14.08-16.74l8.67-.51c.51,6.44,1.8,9.27,5.58,9.27,3.26,0,5.15-2.49,5.15-6.61,0-13.48-18.8-16.22-18.8-33.99,0-8.75,4.64-14.42,13.3-14.42,10.13,0,13.39,6.87,13.99,16.74l-8.41.52c-.26-5.41-1.72-9.1-5.41-9.1-3.18,0-4.46,2.06-4.46,5.41,0,13.13,19.05,15.79,19.05,34.07,0,9.53-5.32,15.36-14.59,15.36ZM292.79,71.31h-26.01V9.69h25.06v8.67h-15.71v16.91h12.36v8.41h-12.36v18.97h16.65v8.67ZM319.4,71.31l-7.98-29.18-4.03,8.93v20.26h-9.1V9.69h9.1v25.84h.17l10.81-25.84h9.44l-9.96,22.14,11.07,39.48h-9.53ZM341.54,71.31h-9.44V9.69h9.44v61.63Z"/>
  </g>
</svg>